<svg xmlns="http://www.w3.org/2000/svg" xml:space="preserve" width="2000" height="1500" data-id="lg_Ue2sJNYo3RPrmWLSyU" data-version="1" viewBox="0 0 2000 1500"><path fill="#02020a" stroke="transparent" d="M0 0h2000v1500H0z"/><g data-padding="20"><g fill="#fcff4b"><path d="m921.55 532.996-481.911 361.6v32.366l513.627-386.615c-8.966-10.97-22.414-14.262-31.717-7.35m226.947 285.462-636.01 480.083h42.812L1181.67 825.92c-8.966-11.083-23.872-14.372-33.062-7.46m111.736 142.839-446.832 337.244h42.924l436.968-329.783c-8.966-11.19-23.759-14.482-33.061-7.461"/><path d="M439.639 201.458v463.848l461.625-334.722c9.526-7.022 26.224-3.62 35.526 7.46l156.23 184.75 273.904-228.414 2.354-1.206c57.941-41.03 132.245 16.347 131.012 78.222-1.345 16.213-8.488 31.441-20.173 43.006l-1.681 2.194-147.823 123.313c-43.595 36.312-89.994 72.736-133.59 109.16l363.338 434.884V201.458Z"/><path d="M757.7 822.188c-10.31 8.557-18.155 17.663-25.329 29.183a424.7 424.7 0 0 0-33.845 63.631c-5.267 12.726-13.897 29.95-12.889 44.651 25.44-.33 50.657-3.511 75.65-8.01 19.836-3.51 43.707-4.826 62.536-12.067 10.31-3.949 16.361-8.777 24.095-15.36l65.002-54.194 468.126-390.562-94.701-98.52-79.124 65.937L857.781 738.7Zm-85.399 146.351c-1.457-5.485-4.259-11.3-3.81-17.223L439.75 1121.802v32.364l241.963-180.47h-3.698c-3.25 0-4.93-2.085-5.715-5.158m770.61-541.08-94.702-98.409-22.303 18.65 93.021 99.835Zm-34.63 29.073-93.02-99.945-18.156 15.25 94.588 98.407Z"/></g><path fill="transparent" stroke="transparent" stroke-width="1.426" d="M425.38 187.5h1149.24v1125H425.38z"/></g></svg>